<svg width="100%" height="100%" xmlns="http://www.w3.org/2000/svg">
  <defs>
    <pattern id="grid" width="40" height="40" patternUnits="userSpaceOnUse">
      <path d="M 0 10 L 10 0 M 30 40 L 40 30" stroke="#f0f8ff" stroke-width="1" fill="none"/>
      <path d="M 0 30 L 30 0 M 10 40 L 40 10" stroke="#e6f3ff" stroke-width="1" fill="none"/>
    </pattern>
    <linearGradient id="gradient" x1="0%" y1="0%" x2="100%" y2="100%">
      <stop offset="0%" stop-color="#4a6fa5" />
      <stop offset="100%" stop-color="#166088" />
    </linearGradient>
    <filter id="noise" x="0%" y="0%" width="100%" height="100%">
      <feTurbulence type="fractalNoise" baseFrequency="0.03" numOctaves="3" stitchTiles="stitch" />
      <feColorMatrix type="saturate" values="0.2" />
      <feBlend mode="overlay" in="SourceGraphic" />
    </filter>
    <symbol id="camera" viewBox="0 0 100 100">
      <rect x="20" y="25" width="60" height="40" rx="5" fill="none" stroke="rgba(255,255,255,0.15)" stroke-width="2"/>
      <circle cx="50" cy="45" r="15" fill="none" stroke="rgba(255,255,255,0.15)" stroke-width="2"/>
      <rect x="30" y="20" width="40" height="10" rx="3" fill="none" stroke="rgba(255,255,255,0.15)" stroke-width="2"/>
    </symbol>
    <symbol id="image" viewBox="0 0 100 100">
      <rect x="20" y="20" width="60" height="60" rx="5" fill="none" stroke="rgba(255,255,255,0.15)" stroke-width="2"/>
      <polyline points="20,65 35,50 45,60 60,40 80,65" fill="none" stroke="rgba(255,255,255,0.15)" stroke-width="2"/>
      <circle cx="70" cy="35" r="5" fill="none" stroke="rgba(255,255,255,0.15)" stroke-width="2"/>
    </symbol>
  </defs>
  
  <rect width="100%" height="100%" fill="url(#gradient)" />
  <rect width="100%" height="100%" fill="url(#grid)" opacity="0.2" />
  <rect width="100%" height="100%" filter="url(#noise)" opacity="0.05" />
  
  <use href="#camera" x="50" y="50" width="100" height="100" opacity="0.1" />
  <use href="#camera" x="250" y="150" width="100" height="100" opacity="0.1" />
  <use href="#camera" x="450" y="250" width="100" height="100" opacity="0.1" />
  
  <use href="#image" x="150" y="100" width="100" height="100" opacity="0.1" />
  <use href="#image" x="350" y="200" width="100" height="100" opacity="0.1" />
  <use href="#image" x="50" y="300" width="100" height="100" opacity="0.1" />
</svg> 